<?xml version="1.0" encoding="UTF-8" standalone="no"?>
<svg
   xmlns:dc="http://purl.org/dc/elements/1.1/"
   xmlns:cc="http://creativecommons.org/ns#"
   xmlns:rdf="http://www.w3.org/1999/02/22-rdf-syntax-ns#"
   xmlns:svg="http://www.w3.org/2000/svg"
   xmlns="http://www.w3.org/2000/svg"
   xmlns:sodipodi="http://sodipodi.sourceforge.net/DTD/sodipodi-0.dtd"
   xmlns:inkscape="http://www.inkscape.org/namespaces/inkscape"
   width="20"
   height="40"
   version="1.1"
   id="car"
   sodipodi:docname="car.svg"
   inkscape:version="0.92.2 5c3e80d, 2017-08-06">
  <sodipodi:namedview
     pagecolor="#ffffff"
     bordercolor="#666666"
     borderopacity="1"
     objecttolerance="10"
     gridtolerance="10"
     guidetolerance="10"
     inkscape:pageopacity="0"
     inkscape:pageshadow="2"
     inkscape:window-width="1920"
     inkscape:window-height="1060"
     id="namedview4832"
     showgrid="false"
     fit-margin-top="0"
     fit-margin-left="0"
     fit-margin-right="0"
     fit-margin-bottom="0"
     inkscape:zoom="11.125147"
     inkscape:cx="27.863271"
     inkscape:cy="13.522711"
     inkscape:window-x="0"
     inkscape:window-y="20"
     inkscape:window-maximized="0"
     inkscape:current-layer="svg4830"
     units="px" />
  <path
     style="display:inline;fill:#0000ff;fill-opacity:0.99607801;stroke:#191919;stroke-width:0.5;stroke-miterlimit:4;stroke-dasharray:none"
     d="m 0.46436985,16.795193 c -0.002538,0.811378 0.99361355,0.04862 1.47421095,0.08075 0.2615219,0.206895 0.03626,1.033255 0.1134933,1.474669 0.054098,3.518615 -0.050502,7.035392 -0.3321947,10.543862 -0.2980408,3.283821 0.3228817,6.573167 1.3145076,9.689966 0.9585204,0.74448 2.3089651,0.653496 3.4588585,0.827483 3.1913205,0.17686 6.4482885,0.28038 9.5923265,-0.384081 0.879662,-0.04324 1.07864,-0.879568 1.224863,-1.580054 0.844844,-2.916564 1.244266,-5.965196 0.94806,-8.99792 -0.349112,-3.858613 -0.33015,-7.730886 -0.304666,-11.600499 0.486208,0.05235 1.118555,0.396146 1.51846,0.276386 0.347223,-0.743959 -0.519658,-1.004908 -1.047538,-1.175713 -0.737446,-0.04628 -0.39436,-0.830233 -0.466986,-1.330382 0.03326,-1.157946 -0.05551,-2.344466 0.05287,-3.484818 0.6348,-1.6020863 0.432227,-3.4126806 0.193884,-5.0788156 C 17.785625,3.4852384 15.701859,1.4087919 13.194218,0.831478 10.570072,0.23818696 7.6599884,0.25088385 5.1994096,1.4433369 2.6988089,2.6381184 1.4909381,5.5195453 1.5920669,8.1866416 1.4474758,9.3555841 1.8148648,10.480781 2.0379763,11.579774 c 0.00317,1.395974 0.00634,2.791949 0.00952,4.187923 -0.5059575,0.315778 -1.53536772,0.277573 -1.58312375,1.027496 z"
     id="path3855"
     inkscape:connector-curvature="0" />
  <path
     d="m 0.46431913,16.795197 c 3.6764e-4,0.06231 0.0126377,0.195014 0.0387047,0.267201 l 0.0619279,0.144573 1.47981977,-0.35756 0.011611,5.155587 c 0.00683,3.22042 -0.4749319,6.878561 -0.3922097,9.621863 0.082722,2.743303 1.1559874,6.283773 1.1559874,6.283773 L 2.97627,38.476018 c 0.2186577,0.795211 4.0198269,1.062355 6.8856093,1.062355 0.045952,0 0.09302,-0.0011 0.1393377,-0.0013 0.04632,1.91e-4 0.09339,0.0013 0.139337,0.0013 2.865785,0 6.666951,-0.267144 6.885609,-1.062355 l 0.156111,-0.565384 c 0,0 1.073266,-3.54047 1.155987,-6.283773 0.08272,-2.743302 -0.399039,-6.401443 -0.392211,-9.621863 l 0.01161,-5.155587 1.479818,0.35756 0.06193,-0.144573 c 0.02607,-0.07219 0.03834,-0.204884 0.03871,-0.267201 1.87e-4,-0.03505 -0.0031,-0.0725 -0.01032,-0.111014 -0.0024,-0.01284 -0.0058,-0.02576 -0.009,-0.03873 -0.0031,-0.01258 -0.0065,-0.02613 -0.01032,-0.03872 -0.008,-0.02596 -0.01742,-0.05219 -0.02838,-0.07745 -0.0327,-0.07524 -0.07856,-0.14599 -0.135466,-0.197496 -4.36e-4,-3.74e-4 -8.6e-4,-8.98e-4 -0.0013,-0.0013 -0.02876,-0.02581 -0.05998,-0.04595 -0.09418,-0.06067 l -1.290164,-0.502136 0.01032,-4.541145 c 0.493045,-0.987256 0.442525,-1.8799371 0.442525,-3.0399113 0,-5.5041235 -3.574738,-7.75029217 -8.31382,-7.72434509 -0.03221,0 -0.06464,7.7891e-4 -0.09676,0.001277 C 9.969126,0.4630581 9.936701,0.46227961 9.90449,0.46227961 5.16538,0.43634753 1.5906403,2.6825162 1.5906403,8.186636 c 0,1.1599761 -0.050518,2.052659 0.4425273,3.039913 l 0.010321,4.541147 -1.29016504,0.502136 c -0.0342016,0.01472 -0.0654227,0.03486 -0.0941824,0.06067 -4.2996e-4,3.74e-4 -8.4995e-4,8.79e-4 -0.001287,0.0013 -0.0569112,0.05151 -0.10276846,0.122254 -0.13546727,0.197496 -0.0109588,0.02526 -0.0204283,0.05149 -0.0283839,0.07745 -0.003845,0.01259 -0.007209,0.02614 -0.0103224,0.03872 -0.003203,0.01297 -0.006618,0.02589 -0.009031,0.03873 -0.007249,0.03851 -0.0105271,0.07596 -0.0103213,0.111013 h -6.48e-6 1.49e-6 z"
     id="path2853"
     inkscape:connector-curvature="0"
     style="display:none;fill:#0000ff;fill-opacity:1;stroke-width:0.06596441" />
  <path
     style="opacity:0.9;fill:#262626;fill-opacity:0.99607801;stroke-width:0.06596441"
     d="m 15.390778,25.477316 c 0.107002,1.165254 -0.138086,3.175454 0.38954,3.811382 1.563468,-1.12156 1.167165,-3.32719 1.190496,-4.992816 -0.143921,-2.803346 -0.02091,-5.609359 0.0288,-8.413324 -1.332686,2.992637 -1.56397,6.357332 -1.608834,9.594758 z"
     id="path3643"
     inkscape:connector-curvature="0" />
  <path
     style="opacity:0.5;fill:#000000;fill-opacity:0.99607801;stroke-width:0.06596441"
     d="m 15.390778,25.477316 c -0.03839,1.301447 2.605629,-0.880152 1.295471,-0.560008 -0.290482,0.362489 -1.221371,0.220996 -1.295471,0.560008 z"
     id="path3658"
     inkscape:connector-curvature="0" />
  <path
     style="fill:#212121;fill-rule:nonzero;stroke:#191919;stroke-width:0.32982206;stroke-miterlimit:4"
     d="m 14.245673,1.160617 c 0.04713,1.2826096 1.450918,1.8805301 2.570007,1.8484698 C 16.117362,2.1996796 15.232214,1.5711117 14.245673,1.160617 Z"
     id="path3707"
     inkscape:connector-curvature="0" />
  <path
     style="opacity:0.5;fill:none;stroke:#292929;stroke-width:0.39578646;stroke-linecap:round;stroke-linejoin:round;stroke-miterlimit:4"
     d="M 14.699732,9.6511469 C 13.940946,6.7655953 12.930571,3.9588544 11.763217,1.2147906 c 1.360152,0.2301576 2.591479,1.074506 3.054737,2.4091894 1.183996,2.6401754 1.489312,5.5995004 1.559789,8.46154"
     id="path3715"
     inkscape:connector-curvature="0" />
  <path
     style="opacity:0.9;fill:#191919;fill-rule:nonzero;stroke-width:0.32982206"
     d="m 15.288124,25.477316 c 0.05533,1.287101 -0.02943,2.98048 0.303834,4.037733 1.761853,-0.917255 1.50139,-3.222115 1.492881,-4.890771 -0.152727,-2.912253 -0.03933,-5.827398 0.01855,-8.740424 -0.938583,0.740256 -1.027901,2.726167 -1.372225,3.980919 -0.313954,1.852929 -0.441185,3.734363 -0.443036,5.612543 z m 0.206429,0 c 0.03699,-3.06612 0.272177,-6.207873 1.392088,-9.091332 -0.122682,3.251375 -0.08293,6.503414 0.0059,9.75412 0.08812,0.966502 -0.412868,3.041929 -1.228234,2.856492 -0.115076,-1.169302 -0.169607,-2.344403 -0.169783,-3.51928 z"
     id="path4025"
     inkscape:connector-curvature="0" />
  <path
     style="opacity:0.9;fill:#262626;fill-opacity:0.99607801;stroke:#191919;stroke-width:0.32982206;stroke-miterlimit:4"
     d="m 5.1579897,31.253807 c 0.2343281,1.202618 0.3036986,2.450802 0.6574305,3.620628 1.0727114,1.453518 3.1283173,1.754643 4.8232638,1.652743 1.398705,-0.191701 3.30954,-0.575785 3.705063,-2.148973 0.144932,-1.10868 0.421642,-2.213463 0.480738,-3.32468 -0.276151,-1.098224 -1.552289,-0.726712 -2.383687,-0.791077 -2.163712,0.01337 -4.3301001,-0.02675 -6.4921399,0.02007 -0.4510274,0.08418 -0.7994937,0.512541 -0.7906684,0.971288 z"
     id="rect2864"
     inkscape:connector-curvature="0" />
  <path
     style="opacity:0.9;fill:#262626;fill-opacity:0.99607801;stroke:#191919;stroke-width:0.32982206;stroke-miterlimit:4;stroke-dashoffset:0"
     d="m 3.7452595,13.431286 c 0.1719995,1.092092 0.3460767,2.205952 0.6520747,3.268237 0.2444211,1.104807 1.3825858,1.110077 2.2757711,1.054769 2.6567921,-0.01763 5.3172717,0.03541 7.9717397,-0.02676 1.237136,-0.489287 1.129185,-2.02511 1.416397,-3.115965 C 16.393571,13.5334 16.273326,12.254147 15.302935,11.532688 13.086516,9.8288616 10.019043,9.8225516 7.3836111,10.30078 5.8091243,10.655887 3.8040658,11.554746 3.7452595,13.431286 Z"
     id="path3703"
     inkscape:connector-curvature="0" />
  <path
     style="opacity:0.9;fill:#262626;fill-opacity:0.99607801;stroke-width:0.06596441"
     d="M 4.6117481,25.477316 C 4.5047469,26.64257 4.7498409,28.65277 4.22221,29.288698 2.6587429,28.167137 3.0550453,25.961508 3.031714,24.295882 c 0.1439191,-2.803346 0.020912,-5.609359 -0.028802,-8.413324 1.3312899,2.985627 1.5648215,6.363814 1.608836,9.594758 z"
     id="path4157"
     inkscape:connector-curvature="0" />
  <path
     style="opacity:0.5;fill:#000000;fill-opacity:0.99607801;stroke-width:0.06596441"
     d="m 4.6117481,25.477316 c 0.038422,1.301447 -2.6056093,-0.880152 -1.2954488,-0.560008 0.3088274,0.368787 1.1861094,0.210684 1.2954488,0.560008 z"
     id="path4159"
     inkscape:connector-curvature="0" />
  <path
     style="fill:#212121;fill-rule:nonzero;stroke:#191919;stroke-width:0.32982206;stroke-miterlimit:4"
     d="M 5.7568551,1.160617 C 5.7097138,2.4432244 4.3059377,3.0411466 3.1868476,3.0090868 3.8851668,2.1996806 4.7703135,1.5711113 5.7568551,1.160617 Z"
     id="path4161"
     inkscape:connector-curvature="0" />
  <path
     style="opacity:0.5;fill:none;stroke:#292929;stroke-width:0.39578646;stroke-linecap:round;stroke-linejoin:round;stroke-miterlimit:4"
     d="M 5.3027961,9.6511469 C 6.0615799,6.7655947 7.0719582,3.958855 8.2393111,1.2147906 6.8791592,1.4449494 5.6478305,2.2892956 5.1845731,3.62398 4.0005783,6.2641557 3.6952636,9.2234806 3.6247875,12.08552"
     id="path4163"
     inkscape:connector-curvature="0" />
  <path
     style="fill:#1a1a1a;fill-opacity:1;stroke-width:0.06596441"
     d="m 4.2854015,33.187646 c 0.5191583,-1.505635 -2.110175,-0.51852 -0.809294,0.11281 0.2697646,-0.0376 0.5395297,-0.0752 0.809294,-0.11281 z"
     id="path4179"
     inkscape:connector-curvature="0" />
  <path
     style="opacity:0.9;fill:#191919;fill-rule:nonzero;stroke-width:0.32982206"
     d="m 4.7144018,25.477316 c -0.055327,1.287101 0.029437,2.980481 -0.3038322,4.037733 -1.7618494,-0.917261 -1.5013912,-3.222118 -1.4928815,-4.890776 0.1527274,-2.912253 0.03934,-5.827398 -0.018549,-8.740424 0.9385847,0.740254 1.0279001,2.726168 1.3722252,3.980919 0.3139463,1.852829 0.4411876,3.734449 0.4430374,5.612548 z m -0.2064252,0 c -0.03699,-3.06612 -0.2721787,-6.207873 -1.3920872,-9.091332 0.1226775,3.251375 0.08294,6.503414 -0.00593,9.75412 -0.088123,0.966503 0.412869,3.041929 1.2282354,2.856492 0.1150734,-1.169305 0.1696114,-2.344395 0.1697811,-3.51928 z"
     id="path4183"
     inkscape:connector-curvature="0" />
</svg>
