<?xml version="1.0" encoding="UTF-8"?>
<svg width="20" height="40" xmlns="http://www.w3.org/2000/svg">
 <path d="m0.46437 16.795c-0.002538 0.81138 0.99361 0.04862 1.4742 0.08075 0.26152 0.2069 0.03626 1.0333 0.11349 1.4747 0.054098 3.5186-0.050502 7.0354-0.33219 10.544-0.29804 3.2838 0.32288 6.5732 1.3145 9.69 0.95852 0.74448 2.309 0.6535 3.4589 0.82748 3.1913 0.17686 6.4483 0.28038 9.5923-0.38408 0.87966-0.04324 1.0786-0.87957 1.2249-1.5801 0.84484-2.9166 1.2443-5.9652 0.94806-8.9979-0.34911-3.8586-0.33015-7.7309-0.30467-11.6 0.48621 0.05235 1.1186 0.39615 1.5185 0.27639 0.34722-0.74396-0.51966-1.0049-1.0475-1.1757-0.73745-0.04628-0.39436-0.83023-0.46699-1.3304 0.03326-1.1579-0.05551-2.3445 0.05287-3.4848 0.6348-1.6021 0.43223-3.4127 0.19388-5.0788-0.41889-2.5708-2.5027-4.6472-5.0103-5.2245-2.6241-0.59329-5.5342-0.58059-7.9948 0.61186-2.5006 1.1948-3.7085 4.0762-3.6073 6.7433-0.14459 1.1689 0.2228 2.2941 0.44591 3.3931 0.00317 1.396 0.00634 2.7919 0.00952 4.1879-0.50596 0.31578-1.5354 0.27757-1.5831 1.0275z" fill="#00f" fill-opacity=".99608" stroke="#191919" stroke-width=".5"/>
 <path d="m15.391 25.477c0.107 1.1653-0.13809 3.1755 0.38954 3.8114 1.5635-1.1216 1.1672-3.3272 1.1905-4.9928-0.14392-2.8033-0.02091-5.6094 0.0288-8.4133-1.3327 2.9926-1.564 6.3573-1.6088 9.5948z" fill="#262626" fill-opacity=".99608" opacity=".9" stroke-width=".065964"/>
 <path d="m15.391 25.477c-0.03839 1.3014 2.6056-0.88015 1.2955-0.56001-0.29048 0.36249-1.2214 0.221-1.2955 0.56001z" fill-opacity=".99608" opacity=".5" stroke-width=".065964"/>
 <path d="m14.246 1.1606c0.04713 1.2826 1.4509 1.8805 2.57 1.8485-0.69832-0.80941-1.5835-1.438-2.57-1.8485z" fill="#212121" stroke="#191919" stroke-width=".32982"/>
 <path d="m14.7 9.6511c-0.75879-2.8856-1.7692-5.6923-2.9365-8.4364 1.3602 0.23016 2.5915 1.0745 3.0547 2.4092 1.184 2.6402 1.4893 5.5995 1.5598 8.4615" fill="none" opacity=".5" stroke="#292929" stroke-linecap="round" stroke-linejoin="round" stroke-width=".39579"/>
 <path d="m15.288 25.477c0.05533 1.2871-0.02943 2.9805 0.30383 4.0377 1.7619-0.91726 1.5014-3.2221 1.4929-4.8908-0.15273-2.9123-0.03933-5.8274 0.01855-8.7404-0.93858 0.74026-1.0279 2.7262-1.3722 3.9809-0.31395 1.8529-0.44118 3.7344-0.44304 5.6125zm0.20643 0c0.03699-3.0661 0.27218-6.2079 1.3921-9.0913-0.12268 3.2514-0.08293 6.5034 0.0059 9.7541 0.08812 0.9665-0.41287 3.0419-1.2282 2.8565-0.11508-1.1693-0.16961-2.3444-0.16978-3.5193z" fill="#191919" opacity=".9" stroke-width=".32982"/>
 <g fill-opacity=".99608">
  <path d="m5.158 31.254c0.23433 1.2026 0.3037 2.4508 0.65743 3.6206 1.0727 1.4535 3.1283 1.7546 4.8233 1.6527 1.3987-0.1917 3.3095-0.57578 3.7051-2.149 0.14493-1.1087 0.42164-2.2135 0.48074-3.3247-0.27615-1.0982-1.5523-0.72671-2.3837-0.79108-2.1637 0.01337-4.3301-0.02675-6.4921 0.02007-0.45103 0.08418-0.79949 0.51254-0.79067 0.97129z" fill="#262626" opacity=".9" stroke="#191919" stroke-width=".32982"/>
  <path d="m3.7453 13.431c0.172 1.0921 0.34608 2.206 0.65207 3.2682 0.24442 1.1048 1.3826 1.1101 2.2758 1.0548 2.6568-0.01763 5.3173 0.03541 7.9717-0.02676 1.2371-0.48929 1.1292-2.0251 1.4164-3.116 0.33233-1.0782 0.21208-2.3574-0.75831-3.0789-2.2164-1.7038-5.2839-1.7101-7.9193-1.2319-1.5745 0.35511-3.5795 1.254-3.6384 3.1305z" fill="#262626" opacity=".9" stroke="#191919" stroke-width=".32982"/>
  <path d="m4.6117 25.477c-0.107 1.1653 0.13809 3.1755-0.38954 3.8114-1.5635-1.1216-1.1672-3.3272-1.1905-4.9928 0.14392-2.8033 0.020912-5.6094-0.028802-8.4133 1.3313 2.9856 1.5648 6.3638 1.6088 9.5948z" fill="#262626" opacity=".9" stroke-width=".065964"/>
  <path d="m4.6117 25.477c0.038422 1.3014-2.6056-0.88015-1.2954-0.56001 0.30883 0.36879 1.1861 0.21068 1.2954 0.56001z" opacity=".5" stroke-width=".065964"/>
 </g>
 <path d="m5.7569 1.1606c-0.047141 1.2826-1.4509 1.8805-2.57 1.8485 0.69832-0.80941 1.5835-1.438 2.57-1.8485z" fill="#212121" stroke="#191919" stroke-width=".32982"/>
 <path d="m5.3028 9.6511c0.75878-2.8856 1.7692-5.6923 2.9365-8.4364-1.3602 0.23016-2.5915 1.0745-3.0547 2.4092-1.184 2.6402-1.4893 5.5995-1.5598 8.4615" fill="none" opacity=".5" stroke="#292929" stroke-linecap="round" stroke-linejoin="round" stroke-width=".39579"/>
 <path d="m4.2854 33.188c0.51916-1.5056-2.1102-0.51852-0.80929 0.11281 0.26976-0.0376 0.53953-0.0752 0.80929-0.11281z" fill="#1a1a1a" stroke-width=".065964"/>
 <path d="m4.7144 25.477c-0.055327 1.2871 0.029437 2.9805-0.30383 4.0377-1.7618-0.91726-1.5014-3.2221-1.4929-4.8908 0.15273-2.9123 0.03934-5.8274-0.018549-8.7404 0.93858 0.74025 1.0279 2.7262 1.3722 3.9809 0.31395 1.8528 0.44119 3.7344 0.44304 5.6125zm-0.20643 0c-0.03699-3.0661-0.27218-6.2079-1.3921-9.0913 0.12268 3.2514 0.08294 6.5034-0.00593 9.7541-0.088123 0.9665 0.41287 3.0419 1.2282 2.8565 0.11507-1.1693 0.16961-2.3444 0.16978-3.5193z" fill="#191919" opacity=".9" stroke-width=".32982"/>
</svg>
