<?xml version="1.0" encoding="UTF-8"?>
<svg id="svg17" width="800" height="800" viewBox="0 0 800 800" xmlns="http://www.w3.org/2000/svg">
 <path id="background" d="m0 0h800v800h-800z" fill="#068b00"/>
 <g fill="none" stroke-linejoin="round">
  <path id="track" d="m150 250c-50 0-100-50-100-100s50-100 100-100h500c50 0 100 50 100 100v50c0 25 0 50-25 75l-250 250c-25 25-25 75 0 100s75 25 100 0l75-75c25-25 100-25 100 50v50c0 50-50 100-100 100h-500c-50 0-100-50-100-100s44.75-102.37 97.375-101.19 27.625 1.1873 77.625 1.1873 95.893-45.774 125.06-74.937 74.937-75.063 124.94-125.06 50-50 50-100c0-47.866-50-100-100-100h-75c-50 0-75 25-100 50s-50 50-100 50z" stroke="#8e8e8e" stroke-width="80"/>
  <path id="lbound" d="m150 10c-38.333 0-72 17.929-97.035 42.965-25.035 25.035-42.965 58.702-42.965 97.035s17.929 72 42.965 97.035c25.035 25.035 58.702 42.965 97.035 42.965 63.333 0 103.29-36.715 128.29-61.715s35.048-38.285 71.715-38.285h75c11.098 0 27.583 7.2694 40.268 20.135 12.685 12.865 19.732 29.86 19.732 39.865 0 25 0.20448 26.823-2.0273 32.111-4.7378 11.227-11.258 14.604-36.258 39.604-50.025 50.025-95.809 95.942-124.93 125.06-29.134 29.128-71.194 63.225-96.781 63.225-50 0-23.812 0.016-76.723-1.1777-39.828-0.89859-74.561 18.159-98.68 44.219-24.119 26.06-39.598 60.026-39.598 96.959 0 38.333 17.929 72 42.965 97.035 25.035 25.035 58.702 42.965 97.035 42.965h500c38.333 0 72-17.929 97.035-42.965 25.035-25.035 42.965-58.702 42.965-97.035v-50c0-50.833-33.248-90.564-69.637-100.96-36.389-10.397-72.006-3.9664-98.648 22.676l-75 75c-3.0719 3.0719-11.854 7.0352-21.715 7.0352s-18.643-3.9632-21.715-7.0352-7.0352-11.854-7.0352-21.715 3.9632-18.643 7.0352-21.715l250-250c34.428-34.428 36.715-78.285 36.715-103.29v-50c0-38.333-17.929-72-42.965-97.035-25.035-25.035-58.702-42.965-97.035-42.965z" stroke="#444" stroke-width="8"/>
  <path id="rbound" d="m150 90h500c11.667 0 28 7.0706 40.465 19.535 12.465 12.465 19.535 28.798 19.535 40.465v50c0 25 2.2868 31.143-13.285 46.715l-250 250c-21.928 21.928-30.465 50.646-30.465 78.285s8.5368 56.357 30.465 78.285 50.646 30.465 78.285 30.465 56.357-8.5368 78.285-30.465l75-75c6.18-5.7307 15.86-10.006 24.042-4.5847 6.4725 4.2886 7.6724 11.977 7.6724 26.3v50c0 11.667-7.0706 28-19.535 40.465-12.465 12.465-28.798 19.535-40.465 19.535h-500c-11.667 0-28-7.0706-40.465-19.535-12.465-12.465-19.535-28.798-19.535-40.465 0-13.067 6.8962-30.288 18.309-42.619 11.412-12.331 25.367-18.867 38.164-18.578 52.339 1.1809 28.527 1.1973 78.527 1.1973 74.413 0 124.14-57.451 153.34-86.65 29.215-29.209 74.966-75.089 124.94-125.06 25-25 40.222-38.356 51.242-60.396 11.02-22.041 10.473-42.889 10.473-67.889 0-37.861-17.952-70.865-42.768-96.033-24.815-25.168-58.33-43.967-97.232-43.967h-75c-63.333 0-103.29 36.715-128.29 61.715s-35.048 38.285-71.715 38.285c-11.667 0-28-7.0706-40.465-19.535-12.465-12.465-19.535-28.798-19.535-40.465s7.0706-28 19.535-40.465c12.465-12.465 28.798-19.535 40.465-19.535z" stroke="#444" stroke-linecap="round" stroke-width="8"/>
  <path id="center" d="m150 250c-50 0-100-50-100-100s50-100 100-100h500c50 0 100 50 100 100v50c0 25 0 50-25 75l-250 250c-25 25-25 75 0 100s75 25 100 0l75-75c25-25 100-25 100 50v50c0 50-50 100-100 100h-500c-50 0-100-50-100-100s44.75-102.37 97.375-101.19 27.625 1.1873 77.625 1.1873 95.893-45.774 125.06-74.937 74.937-75.063 124.94-125.06 50-50 50-100c0-47.866-50-100-100-100h-75c-50 0-75 25-100 50s-50 50-100 50z" stroke="#ededed" stroke-dasharray="24 24" stroke-width="4"/>
 </g>
</svg>
