<?xml version="1.0" encoding="UTF-8"?>
<svg id="track" width="800" height="800" viewBox="0 0 800 800" xmlns="http://www.w3.org/2000/svg">
 <path id="background" d="m0 0h800v800h-800z" fill="#068b00"/>
 <g fill="none" stroke-linejoin="round">
  <path id="track" d="m104.17 531.26c6.9746-466.49-36.179-453.61 292.47-458.19 247.63-3.4512 338.08-0.0062 341.01 96.21 4.0234 132.28-179.51 96.731-315.43 94.045-153.01-3.0236-173.66 72.512-173.66 185.04 0 126.63 121.37 144.09 237.08 28.38 114.56-114.56 255.98-105.89 252 92.341-2.781 138.46-213.02 137.9-331.39 137.9-116.49 0-304.84 8.3055-302.09-175.72z" stroke="#8e8e8e" stroke-width="79.994"/>
  <path id="lbound" d="m554.95 32.862c-44.59-1.339-96.829-0.64559-158.86 0.2185-81.913 1.1416-141.15 0.79436-189.09 8.4212-47.941 7.6266-90.073 28.543-112.12 67.917-22.044 39.373-26.138 86.629-28.263 152.82-2.1256 66.187-0.70283 152.42-2.4373 268.43-0.78978 52.823 12.789 96.978 37.825 129.9 25.036 32.918 59.74 53.201 95.571 65.432 71.661 24.463 151.39 20.983 208.69 20.983 59.121 0 143.65 0.826 218.87-18.249 37.613-9.5373 73.696-24.062 102.71-49.73 29.015-25.668 48.895-64.385 49.793-109.12 1.0909-54.316-7.4167-98.762-26.357-133.93-18.941-35.165-50.07-60.046-85.228-69.073-70.316-18.054-145.23 18.131-208.69 81.587-52.201 52.201-102.45 68.634-128.58 65.292-13.068-1.6713-20.596-6.1112-27.404-15.218-6.8085-9.1064-12.812-24.915-12.812-50.184 0-53.817 6.6286-91.966 21.514-111.93s41.459-34.504 111.35-33.122c64.829 1.281 145.34 11.57 215.64 3.3278 35.147-4.1209 69.304-12.696 97.305-35.419 28.001-22.723 44.532-60.897 43.247-103.15-0.92178-30.305-9.9968-60.089-30.31-82.056-20.313-21.967-47.969-33.925-79.4-41.184-31.431-7.2595-68.369-10.629-112.96-11.968z" stroke="#444" stroke-width="7.9994"/>
  <path id="rbound" d="m397.2 113.06c123.56-1.7221 207.71-0.67672 252.71 9.718 22.502 5.1972 33.461 11.913 38.669 17.546 5.2083 5.6323 8.5515 12.366 9.093 30.17 0.72663 23.887-4.1749 30.875-13.702 38.606-9.5271 7.7312-28.992 14.901-56.214 18.092-54.445 6.3834-133.66-2.4543-204.75-3.8591-83.118-1.6425-143.36 20.095-177.05 65.276-33.69 45.181-37.388 101.04-37.388 159.75 0 38.047 9.1684 71.919 28.732 98.086 19.564 26.167 49.6 42.61 81.337 46.668 63.475 8.1176 131.77-24.575 195.28-88.087 51.105-51.105 104.18-67.866 132.22-60.667 14.02 3.5998 24.664 10.896 34.7 29.529 10.036 18.633 17.711 49.6 16.811 94.399-0.49193 24.5-7.9403 37.639-22.826 50.808-14.886 13.169-39.279 24.461-69.37 32.091-60.181 15.26-139.95 15.796-199.2 15.796-59.197 0-131.9 0.69036-182.85-16.702-25.474-8.696-44.6-20.855-57.745-38.138-13.145-17.283-22.084-41.099-21.498-80.291 1.7528-117.24 0.39118-204.32 2.4061-267.06 2.0149-62.741 8.9873-100.01 18.108-116.3 9.1206-16.291 18.253-22.173 54.871-27.998 36.618-5.8252 95.232-6.2884 177.64-7.4369z" stroke="#444" stroke-width="7.9994"/>
  <path id="center" d="m104.17 531.26c6.9746-466.49-36.179-453.61 292.47-458.19 247.63-3.4512 338.08-0.0062 341.01 96.21 4.0234 132.28-179.51 96.731-315.43 94.045-153.01-3.0236-173.66 72.512-173.66 185.04 0 126.63 121.37 144.09 237.08 28.38 114.56-114.56 255.98-105.89 252 92.341-2.781 138.46-213.02 137.9-331.39 137.9-116.49 0-304.84 8.3055-302.09-175.72z" stroke="#ededed" stroke-dasharray="15.998746 31.997492" stroke-width="3.9997"/>
 </g>
</svg>
