<?xml version="1.0" encoding="UTF-8" standalone="no"?>
<!-- Created with Inkscape (http://www.inkscape.org/) -->

<svg
   xmlns:dc="http://purl.org/dc/elements/1.1/"
   xmlns:cc="http://creativecommons.org/ns#"
   xmlns:rdf="http://www.w3.org/1999/02/22-rdf-syntax-ns#"
   xmlns:svg="http://www.w3.org/2000/svg"
   xmlns="http://www.w3.org/2000/svg"
   xmlns:sodipodi="http://sodipodi.sourceforge.net/DTD/sodipodi-0.dtd"
   xmlns:inkscape="http://www.inkscape.org/namespaces/inkscape"
   width="800"
   height="800"
   viewBox="0 0 800 800"
   version="1.1"
   id="svg8"
   inkscape:version="0.92.2 5c3e80d, 2017-08-06"
   sodipodi:docname="track.svg">
  <sodipodi:namedview
     id="base"
     pagecolor="#ffffff"
     bordercolor="#666666"
     borderopacity="1.0"
     inkscape:pageopacity="0.0"
     inkscape:pageshadow="2"
     inkscape:zoom="0.90509668"
     inkscape:cx="381.31686"
     inkscape:cy="333.32788"
     inkscape:document-units="px"
     inkscape:current-layer="svg8"
     showgrid="false"
     inkscape:window-width="1920"
     inkscape:window-height="1060"
     inkscape:window-x="0"
     inkscape:window-y="20"
     inkscape:window-maximized="1"
     units="px" />
  <defs
     id="defs2" />
  <metadata
     id="metadata5">
    <rdf:RDF>
      <cc:Work
         rdf:about="">
        <dc:format>image/svg+xml</dc:format>
        <dc:type
           rdf:resource="http://purl.org/dc/dcmitype/StillImage" />
        <dc:title></dc:title>
      </cc:Work>
    </rdf:RDF>
  </metadata>
  <rect
     inkscape:label="background"
     ry="0"
     rx="0"
     y="0"
     x="0"
     height="800"
     width="800"
     id="background"
     style="fill:#068b00;fill-opacity:1;stroke:none;stroke-width:79.99515533;stroke-linecap:butt;stroke-linejoin:round;stroke-miterlimit:4;stroke-dasharray:none;stroke-opacity:1;paint-order:normal" />
  <path
     inkscape:label="track"
     sodipodi:nodetypes="sssssssss"
     inkscape:connector-curvature="0"
     id="track"
     d="M 104.17178,531.26309 C 111.14643,64.777614 67.992809,77.653098 396.63883,73.072723 c 247.62828,-3.451234 338.08248,-0.0062 341.00914,96.209527 4.02342,132.2755 -179.50992,96.73117 -315.42511,94.04541 -153.00975,-3.02363 -173.6555,72.51201 -173.6555,185.03806 0,126.63201 121.36617,144.09278 237.07941,28.37953 114.56175,-114.56173 255.98257,-105.88772 252.00126,92.34083 -2.78103,138.46365 -213.0185,137.90033 -331.38828,137.90033 -116.49311,0 -304.83949,8.30551 -302.08797,-175.72332 z"
     style="fill:none;fill-opacity:1;stroke:#8e8e8e;stroke-width:79.99372864;stroke-linecap:butt;stroke-linejoin:round;stroke-miterlimit:4;stroke-dasharray:none;stroke-opacity:1;paint-order:normal" />
  <path
     inkscape:label="lbound"
     inkscape:connector-curvature="0"
     id="lbound"
     d="M 554.95156,32.8615 C 510.36116,31.52249 458.12269,32.21591 396.089,33.08 c -81.91261,1.1416 -141.15392,0.79436 -189.09455,8.42115 -47.94062,7.626558 -90.07263,28.543105 -112.116203,67.91664 -22.043563,39.37335 -26.137813,86.62883 -28.263406,152.81605 -2.125594,66.18727 -0.702829,152.42446 -2.437313,268.4321 -0.789781,52.82297 12.788813,96.97837 37.825152,129.89604 25.03636,32.91769 59.74018,53.20111 95.57063,65.43244 71.66092,24.46263 151.39075,20.98275 208.68678,20.98275 59.12144,0 143.64772,0.826 218.87346,-18.24862 37.61286,-9.53728 73.69595,-24.06225 102.71068,-49.7305 29.01479,-25.66819 48.89457,-64.38455 49.79297,-109.11638 1.09093,-54.31589 -7.41673,-98.76201 -26.35731,-133.92703 -18.94056,-35.16503 -50.0697,-60.04559 -85.22769,-69.07277 -70.31593,-18.05421 -145.23018,18.13086 -208.68675,81.58736 -52.20139,52.20143 -102.44687,68.63435 -128.58367,65.29177 -13.06839,-1.67127 -20.59566,-6.11116 -27.40409,-15.21752 -6.80846,-9.1064 -12.8115,-24.91451 -12.8115,-50.18354 0,-53.81694 6.62861,-91.96632 21.51393,-111.92878 14.88532,-19.96246 41.45913,-34.50354 111.35066,-33.12236 64.82853,1.28103 145.3443,11.56967 215.63934,3.32781 35.14749,-4.12086 69.30374,-12.69625 97.3049,-35.41908 28.0011,-22.72275 44.53168,-60.89722 43.24659,-103.14814 -0.92178,-30.30526 -9.99684,-60.08942 -30.31016,-82.056088 C 726.99814,64.046677 699.34216,52.088427 667.91142,44.829083 636.48077,37.56961 599.54195,34.20029 554.95156,32.86121 Z"
     style="color:#000000;font-style:normal;font-variant:normal;font-weight:normal;font-stretch:normal;font-size:medium;line-height:normal;font-family:sans-serif;font-variant-ligatures:normal;font-variant-position:normal;font-variant-caps:normal;font-variant-numeric:normal;font-variant-alternates:normal;font-feature-settings:normal;text-indent:0;text-align:start;text-decoration:none;text-decoration-line:none;text-decoration-style:solid;text-decoration-color:#000000;letter-spacing:normal;word-spacing:normal;text-transform:none;writing-mode:lr-tb;direction:ltr;text-orientation:mixed;dominant-baseline:auto;baseline-shift:baseline;text-anchor:start;white-space:normal;shape-padding:0;clip-rule:nonzero;display:inline;overflow:visible;visibility:visible;opacity:1;isolation:auto;mix-blend-mode:normal;color-interpolation:sRGB;color-interpolation-filters:linearRGB;solid-color:#000000;solid-opacity:1;vector-effect:none;fill:none;fill-opacity:1;fill-rule:nonzero;stroke:#444444;stroke-width:7.99937344;stroke-linecap:butt;stroke-linejoin:round;stroke-miterlimit:4;stroke-dasharray:none;stroke-dashoffset:0;stroke-opacity:1;paint-order:normal;color-rendering:auto;image-rendering:auto;shape-rendering:auto;text-rendering:auto;enable-background:accumulate" />
  <path
     inkscape:label="rbound"
     inkscape:connector-curvature="0"
     id="rbound"
     d="m 397.1983,113.0583 c 123.56097,-1.72211 207.71012,-0.67672 252.71454,9.71805 22.50225,5.1972 33.46052,11.91325 38.66888,17.54551 5.20831,5.63227 8.55148,12.36597 9.09301,30.1695 0.72663,23.88672 -4.17489,30.87512 -13.70203,38.60633 -9.52712,7.7312 -28.99204,14.90067 -56.21433,18.09231 -54.44459,6.38344 -133.66296,-2.45433 -204.7496,-3.85908 -83.11824,-1.6425 -143.35863,20.09516 -177.04861,65.27617 -33.69,45.18094 -37.38771,101.04396 -37.38771,159.75308 0,38.04695 9.16838,71.91933 28.73213,98.08606 19.56375,26.16668 49.60008,42.6095 81.33737,46.66819 63.4746,8.11755 131.76972,-24.57497 195.28157,-88.08686 51.10517,-51.10511 104.18442,-67.86648 132.22403,-60.66708 14.01975,3.59977 24.66425,10.89591 34.70037,29.52897 10.03613,18.63302 17.71094,49.60046 16.81117,94.39885 -0.49193,24.49984 -7.94032,37.63943 -22.82628,50.8085 -14.88603,13.16904 -39.27928,24.46139 -69.36958,32.09125 -60.18068,15.25967 -139.95481,15.79565 -199.20314,15.79565 -59.19711,0 -131.89737,0.69036 -182.84506,-16.70179 -25.47383,-8.69599 -44.60033,-20.85455 -57.74547,-38.13768 -13.14512,-17.28318 -22.08427,-41.09918 -21.4983,-80.29057 1.75285,-117.23518 0.39118,-204.31638 2.40606,-267.05724 2.01491,-62.74075 8.98734,-100.01245 18.10796,-116.30334 9.12061,-16.29089 18.25297,-22.17259 54.87069,-27.99786 36.61772,-5.82518 95.23194,-6.28836 177.64233,-7.43692 z"
     style="color:#000000;font-style:normal;font-variant:normal;font-weight:normal;font-stretch:normal;font-size:medium;line-height:normal;font-family:sans-serif;font-variant-ligatures:normal;font-variant-position:normal;font-variant-caps:normal;font-variant-numeric:normal;font-variant-alternates:normal;font-feature-settings:normal;text-indent:0;text-align:start;text-decoration:none;text-decoration-line:none;text-decoration-style:solid;text-decoration-color:#000000;letter-spacing:normal;word-spacing:normal;text-transform:none;writing-mode:lr-tb;direction:ltr;text-orientation:mixed;dominant-baseline:auto;baseline-shift:baseline;text-anchor:start;white-space:normal;shape-padding:0;clip-rule:nonzero;display:inline;overflow:visible;visibility:visible;opacity:1;isolation:auto;mix-blend-mode:normal;color-interpolation:sRGB;color-interpolation-filters:linearRGB;solid-color:#000000;solid-opacity:1;vector-effect:none;fill:none;fill-opacity:1;fill-rule:nonzero;stroke:#444444;stroke-width:7.99937344;stroke-linecap:butt;stroke-linejoin:round;stroke-miterlimit:4;stroke-dasharray:none;stroke-dashoffset:0;stroke-opacity:1;paint-order:normal;color-rendering:auto;image-rendering:auto;shape-rendering:auto;text-rendering:auto;enable-background:accumulate" />
  <path
     style="fill:none;fill-opacity:1;stroke:#ededed;stroke-width:3.99968672;stroke-linecap:butt;stroke-linejoin:round;stroke-miterlimit:4;stroke-dasharray:15.99874625, 31.99749245;stroke-dashoffset:0;stroke-opacity:1;paint-order:normal"
     d="M 104.17178,531.26309 C 111.14643,64.777614 67.992809,77.653098 396.63883,73.072723 c 247.62828,-3.451234 338.08248,-0.0062 341.00914,96.209527 4.02342,132.2755 -179.50992,96.73117 -315.42511,94.04541 -153.00975,-3.02363 -173.6555,72.51201 -173.6555,185.03806 0,126.63201 121.36617,144.09278 237.07941,28.37953 114.56175,-114.56173 255.98257,-105.88772 252.00126,92.34083 -2.78103,138.46365 -213.0185,137.90033 -331.38828,137.90033 -116.49311,0 -304.83949,8.30551 -302.08797,-175.72332 z"
     id="center"
     inkscape:connector-curvature="0"
     sodipodi:nodetypes="sssssssss"
     inkscape:label="center" />
</svg>
